<svg width="512" height="512" viewBox="0 0 512 512" fill="none" xmlns="http://www.w3.org/2000/svg">
<path d="M37.6548 334.206C37.6548 393.832 115.296 442.154 211.022 442.154C306.748 442.154 384.389 393.832 384.389 334.206C384.389 274.58 306.748 226.258 211.022 226.258C115.296 226.258 37.6548 274.58 37.6548 334.206Z" fill="white"/>
<path d="M215.119 433.394C130.343 441.801 57.1532 403.44 51.6427 347.841C46.1323 292.171 110.421 240.316 195.126 231.909C279.902 223.503 353.092 261.864 358.532 317.463C364.113 373.132 299.825 425.058 215.119 433.394ZM384.601 248.653C377.395 246.463 372.449 245.05 376.194 235.583C384.389 215.025 385.236 197.293 376.335 184.576C359.733 160.839 314.237 162.111 262.099 183.94C262.099 183.94 245.709 191.076 249.948 178.147C257.931 152.361 256.73 130.814 244.296 118.31C216.038 89.9803 140.799 119.369 76.2984 183.87C28.0467 232.121 0 283.34 0 327.636C0 412.271 108.584 463.772 214.766 463.772C354.011 463.772 446.628 382.882 446.628 318.664C446.699 279.808 413.99 257.766 384.601 248.653Z" fill="#E6162D"/>
<path d="M348.076 51.9724C393.855 42.2231 443.449 56.4231 477.077 93.7246C510.705 130.955 519.818 181.75 505.407 226.187V226.258C502.086 236.502 491.065 242.153 480.751 238.833C470.436 235.512 464.785 224.492 468.105 214.177C478.349 182.527 471.849 146.427 447.971 119.934C424.092 93.442 388.839 83.3395 356.271 90.2629C345.674 92.5236 335.289 85.8121 333.029 75.2151C330.768 64.6888 337.479 54.2331 348.076 51.9724Z" fill="#FF9933"/>
<path d="M362.629 120.076C384.883 115.272 409.044 122.195 425.434 140.351C441.824 158.508 446.205 183.234 439.211 204.922C436.314 213.824 426.847 218.628 417.946 215.802C409.044 212.906 404.24 203.368 407.066 194.537C410.528 183.94 408.338 171.86 400.355 162.958C392.372 154.127 380.503 150.736 369.624 153.068C360.581 155.046 351.609 149.253 349.63 140.139C347.723 131.026 353.516 121.983 362.629 120.076Z" fill="#FF9933"/>
<path d="M219.782 332.652C216.815 337.738 210.245 340.14 205.158 338.021C200.072 335.972 198.517 330.25 201.414 325.305C204.381 320.359 210.669 317.957 215.684 319.935C220.771 321.772 222.608 327.495 219.782 332.652ZM192.724 367.269C184.529 380.338 166.938 386.061 153.727 380.056C140.728 374.121 136.843 358.932 145.038 346.145C153.162 333.429 170.117 327.777 183.258 333.288C196.539 339.01 200.778 354.058 192.724 367.269ZM223.526 274.721C183.187 264.195 137.62 284.329 120.099 319.865C102.226 356.106 119.534 396.375 160.227 409.515C202.474 423.15 252.209 402.239 269.517 363.171C286.614 324.881 265.278 285.53 223.526 274.721Z" fill="black"/>
</svg>
